<mxfile host="app.diagrams.net" agent="Mozilla/5.0 (Windows NT 10.0; Win64; x64) AppleWebKit/537.36 (KHTML, like Gecko) Chrome/134.0.0.0 Safari/537.36" version="26.1.1">
  <diagram name="Page-1" id="2aNvxG_eo4bYwOBHigJi">
    <mxGraphModel dx="2140" dy="1669" grid="1" gridSize="10" guides="1" tooltips="1" connect="1" arrows="1" fold="1" page="1" pageScale="1" pageWidth="850" pageHeight="1100" math="0" shadow="0">
      <root>
        <mxCell id="0" />
        <mxCell id="1" parent="0" />
        <mxCell id="5Ac1Sz5vzVrmEKb5OD5o-1" value="Question 7" style="swimlane;whiteSpace=wrap;html=1;fillColor=#ffe6cc;strokeColor=#d79b00;startSize=23;" parent="1" vertex="1">
          <mxGeometry x="-570" y="-500" width="1160" height="690" as="geometry" />
        </mxCell>
        <mxCell id="5Ac1Sz5vzVrmEKb5OD5o-2" value="end" style="ellipse;html=1;shape=endState;fillColor=#000000;strokeColor=#ff0000;" parent="5Ac1Sz5vzVrmEKb5OD5o-1" vertex="1">
          <mxGeometry x="575" y="630" width="50" height="50" as="geometry" />
        </mxCell>
        <mxCell id="5Ac1Sz5vzVrmEKb5OD5o-27" value="Do" style="edgeStyle=orthogonalEdgeStyle;rounded=0;orthogonalLoop=1;jettySize=auto;html=1;entryX=1;entryY=0.5;entryDx=0;entryDy=0;" parent="5Ac1Sz5vzVrmEKb5OD5o-1" target="VyBXLYsQOVFhSjAdN3pR-8" edge="1">
          <mxGeometry relative="1" as="geometry">
            <mxPoint x="240" y="225" as="sourcePoint" />
            <mxPoint x="140" y="215" as="targetPoint" />
          </mxGeometry>
        </mxCell>
        <mxCell id="5Ac1Sz5vzVrmEKb5OD5o-29" value="Next" style="edgeStyle=orthogonalEdgeStyle;rounded=0;orthogonalLoop=1;jettySize=auto;html=1;entryX=0.853;entryY=-0.12;entryDx=0;entryDy=0;entryPerimeter=0;" parent="5Ac1Sz5vzVrmEKb5OD5o-1" target="VyBXLYsQOVFhSjAdN3pR-1" edge="1">
          <mxGeometry relative="1" as="geometry">
            <mxPoint x="310" y="120" as="targetPoint" />
            <Array as="points">
              <mxPoint x="950" y="230" />
              <mxPoint x="990" y="230" />
              <mxPoint x="990" y="70" />
              <mxPoint x="310" y="70" />
              <mxPoint x="310" y="190" />
            </Array>
            <mxPoint x="950" y="225" as="sourcePoint" />
          </mxGeometry>
        </mxCell>
        <mxCell id="5Ac1Sz5vzVrmEKb5OD5o-5" value="Latch is not lock" style="edgeStyle=orthogonalEdgeStyle;html=1;align=left;verticalAlign=bottom;endArrow=open;endSize=8;strokeColor=#ff0000;rounded=0;" parent="5Ac1Sz5vzVrmEKb5OD5o-1" source="VyBXLYsQOVFhSjAdN3pR-12" edge="1">
          <mxGeometry x="-1" relative="1" as="geometry">
            <mxPoint x="950" y="230" as="targetPoint" />
            <mxPoint x="720" y="120" as="sourcePoint" />
          </mxGeometry>
        </mxCell>
        <mxCell id="VyBXLYsQOVFhSjAdN3pR-15" value="Next" style="edgeLabel;html=1;align=center;verticalAlign=middle;resizable=0;points=[];" vertex="1" connectable="0" parent="5Ac1Sz5vzVrmEKb5OD5o-5">
          <mxGeometry x="0.8826" y="-1" relative="1" as="geometry">
            <mxPoint as="offset" />
          </mxGeometry>
        </mxCell>
        <mxCell id="5Ac1Sz5vzVrmEKb5OD5o-6" value="Latch is Locked" style="edgeStyle=orthogonalEdgeStyle;html=1;align=left;verticalAlign=top;endArrow=open;endSize=8;strokeColor=#ff0000;rounded=0;entryX=1;entryY=0.25;entryDx=0;entryDy=0;" parent="5Ac1Sz5vzVrmEKb5OD5o-1" target="VyBXLYsQOVFhSjAdN3pR-10" edge="1">
          <mxGeometry x="-1" relative="1" as="geometry">
            <mxPoint x="720" y="530" as="targetPoint" />
            <mxPoint x="680" y="140" as="sourcePoint" />
          </mxGeometry>
        </mxCell>
        <mxCell id="VyBXLYsQOVFhSjAdN3pR-16" value="Next" style="edgeLabel;html=1;align=center;verticalAlign=middle;resizable=0;points=[];" vertex="1" connectable="0" parent="5Ac1Sz5vzVrmEKb5OD5o-6">
          <mxGeometry x="0.9752" y="3" relative="1" as="geometry">
            <mxPoint as="offset" />
          </mxGeometry>
        </mxCell>
        <mxCell id="5Ac1Sz5vzVrmEKb5OD5o-16" value="" style="edgeStyle=orthogonalEdgeStyle;html=1;align=left;verticalAlign=bottom;endArrow=open;endSize=8;strokeColor=#ff0000;rounded=0;entryX=0.25;entryY=1;entryDx=0;entryDy=0;exitX=0;exitY=0.5;exitDx=0;exitDy=0;" parent="5Ac1Sz5vzVrmEKb5OD5o-1" source="VyBXLYsQOVFhSjAdN3pR-10" target="VyBXLYsQOVFhSjAdN3pR-1" edge="1">
          <mxGeometry x="-1" relative="1" as="geometry">
            <mxPoint x="240" y="260" as="targetPoint" />
            <Array as="points">
              <mxPoint x="80" y="470" />
              <mxPoint x="80" y="270" />
              <mxPoint x="240" y="270" />
            </Array>
            <mxPoint x="550" y="470" as="sourcePoint" />
          </mxGeometry>
        </mxCell>
        <mxCell id="VyBXLYsQOVFhSjAdN3pR-17" value="Ladder is not at given hight" style="edgeLabel;html=1;align=center;verticalAlign=middle;resizable=0;points=[];" vertex="1" connectable="0" parent="5Ac1Sz5vzVrmEKb5OD5o-16">
          <mxGeometry x="-0.4753" y="6" relative="1" as="geometry">
            <mxPoint as="offset" />
          </mxGeometry>
        </mxCell>
        <mxCell id="5Ac1Sz5vzVrmEKb5OD5o-17" value="Ladder reach at given hight" style="edgeStyle=orthogonalEdgeStyle;html=1;align=left;verticalAlign=top;endArrow=open;endSize=8;strokeColor=#ff0000;rounded=0;entryX=0.5;entryY=0;entryDx=0;entryDy=0;exitX=0.5;exitY=1;exitDx=0;exitDy=0;exitPerimeter=0;" parent="5Ac1Sz5vzVrmEKb5OD5o-1" source="VyBXLYsQOVFhSjAdN3pR-10" target="5Ac1Sz5vzVrmEKb5OD5o-2" edge="1">
          <mxGeometry x="-1" relative="1" as="geometry">
            <mxPoint x="430" y="530" as="targetPoint" />
            <mxPoint x="600" y="500" as="sourcePoint" />
          </mxGeometry>
        </mxCell>
        <mxCell id="5Ac1Sz5vzVrmEKb5OD5o-18" value="" style="ellipse;html=1;shape=startState;fillColor=#000000;strokeColor=#ff0000;" parent="5Ac1Sz5vzVrmEKb5OD5o-1" vertex="1">
          <mxGeometry x="245" y="20" width="50" height="50" as="geometry" />
        </mxCell>
        <mxCell id="5Ac1Sz5vzVrmEKb5OD5o-19" value="" style="edgeStyle=orthogonalEdgeStyle;html=1;verticalAlign=bottom;endArrow=open;endSize=8;strokeColor=#ff0000;rounded=0;entryX=0.5;entryY=0;entryDx=0;entryDy=0;" parent="5Ac1Sz5vzVrmEKb5OD5o-1" source="5Ac1Sz5vzVrmEKb5OD5o-18" target="VyBXLYsQOVFhSjAdN3pR-1" edge="1">
          <mxGeometry relative="1" as="geometry">
            <mxPoint x="275" y="190" as="targetPoint" />
          </mxGeometry>
        </mxCell>
        <mxCell id="5Ac1Sz5vzVrmEKb5OD5o-33" value="Use rope" style="edgeStyle=orthogonalEdgeStyle;rounded=0;orthogonalLoop=1;jettySize=auto;html=1;exitX=1;exitY=0.5;exitDx=0;exitDy=0;" parent="5Ac1Sz5vzVrmEKb5OD5o-1" source="VyBXLYsQOVFhSjAdN3pR-4" edge="1">
          <mxGeometry relative="1" as="geometry">
            <mxPoint x="620" y="130" as="targetPoint" />
            <mxPoint x="440" y="215" as="sourcePoint" />
          </mxGeometry>
        </mxCell>
        <mxCell id="5Ac1Sz5vzVrmEKb5OD5o-35" value="use rope" style="edgeStyle=orthogonalEdgeStyle;rounded=0;orthogonalLoop=1;jettySize=auto;html=1;entryX=0.5;entryY=0;entryDx=0;entryDy=0;exitX=0.5;exitY=1;exitDx=0;exitDy=0;" parent="5Ac1Sz5vzVrmEKb5OD5o-1" source="VyBXLYsQOVFhSjAdN3pR-4" target="VyBXLYsQOVFhSjAdN3pR-10" edge="1">
          <mxGeometry relative="1" as="geometry">
            <mxPoint x="600" y="440" as="targetPoint" />
            <Array as="points">
              <mxPoint x="410" y="255" />
              <mxPoint x="415" y="255" />
              <mxPoint x="415" y="310" />
              <mxPoint x="600" y="310" />
            </Array>
            <mxPoint x="415" y="240" as="sourcePoint" />
          </mxGeometry>
        </mxCell>
        <mxCell id="5Ac1Sz5vzVrmEKb5OD5o-31" value="Use Latch" style="edgeStyle=orthogonalEdgeStyle;rounded=0;orthogonalLoop=1;jettySize=auto;html=1;entryX=0.5;entryY=0;entryDx=0;entryDy=0;exitX=1;exitY=0.5;exitDx=0;exitDy=0;" parent="5Ac1Sz5vzVrmEKb5OD5o-1" source="VyBXLYsQOVFhSjAdN3pR-6" target="VyBXLYsQOVFhSjAdN3pR-12" edge="1">
          <mxGeometry relative="1" as="geometry">
            <mxPoint x="680" y="100" as="targetPoint" />
            <mxPoint x="320" y="370" as="sourcePoint" />
            <Array as="points">
              <mxPoint x="320" y="345" />
              <mxPoint x="320" y="340" />
              <mxPoint x="481" y="340" />
              <mxPoint x="481" y="80" />
              <mxPoint x="680" y="80" />
              <mxPoint x="680" y="100" />
            </Array>
          </mxGeometry>
        </mxCell>
        <mxCell id="5Ac1Sz5vzVrmEKb5OD5o-37" value="Use Pulley" style="edgeStyle=orthogonalEdgeStyle;rounded=0;orthogonalLoop=1;jettySize=auto;html=1;entryX=0.25;entryY=0;entryDx=0;entryDy=0;exitX=0.5;exitY=0;exitDx=0;exitDy=0;" parent="5Ac1Sz5vzVrmEKb5OD5o-1" source="VyBXLYsQOVFhSjAdN3pR-8" target="VyBXLYsQOVFhSjAdN3pR-1" edge="1">
          <mxGeometry relative="1" as="geometry">
            <mxPoint x="240" y="190" as="targetPoint" />
            <Array as="points">
              <mxPoint x="65" y="120" />
              <mxPoint x="170" y="120" />
              <mxPoint x="170" y="150" />
              <mxPoint x="210" y="150" />
              <mxPoint x="210" y="180" />
              <mxPoint x="240" y="180" />
            </Array>
            <mxPoint x="115" y="190" as="sourcePoint" />
          </mxGeometry>
        </mxCell>
        <mxCell id="VyBXLYsQOVFhSjAdN3pR-3" value="Do" style="edgeStyle=orthogonalEdgeStyle;rounded=0;orthogonalLoop=1;jettySize=auto;html=1;exitX=1;exitY=0.5;exitDx=0;exitDy=0;entryX=0.25;entryY=1;entryDx=0;entryDy=0;" edge="1" parent="5Ac1Sz5vzVrmEKb5OD5o-1" source="VyBXLYsQOVFhSjAdN3pR-1" target="VyBXLYsQOVFhSjAdN3pR-4">
          <mxGeometry relative="1" as="geometry">
            <mxPoint x="390" y="215" as="targetPoint" />
          </mxGeometry>
        </mxCell>
        <mxCell id="VyBXLYsQOVFhSjAdN3pR-1" value="Action on Ladder" style="rounded=1;whiteSpace=wrap;html=1;arcSize=40;fontColor=#000000;fillColor=#ffffc0;strokeColor=#ff0000;" vertex="1" parent="5Ac1Sz5vzVrmEKb5OD5o-1">
          <mxGeometry x="210" y="195" width="120" height="40" as="geometry" />
        </mxCell>
        <mxCell id="VyBXLYsQOVFhSjAdN3pR-2" value="Do" style="edgeStyle=orthogonalEdgeStyle;html=1;verticalAlign=bottom;endArrow=open;endSize=8;strokeColor=#ff0000;rounded=0;" edge="1" source="VyBXLYsQOVFhSjAdN3pR-1" parent="5Ac1Sz5vzVrmEKb5OD5o-1">
          <mxGeometry relative="1" as="geometry">
            <mxPoint x="235" y="320" as="targetPoint" />
          </mxGeometry>
        </mxCell>
        <mxCell id="VyBXLYsQOVFhSjAdN3pR-4" value="raising" style="rounded=1;whiteSpace=wrap;html=1;arcSize=40;fontColor=#000000;fillColor=#ffffc0;strokeColor=#ff0000;" vertex="1" parent="5Ac1Sz5vzVrmEKb5OD5o-1">
          <mxGeometry x="350" y="140" width="120" height="40" as="geometry" />
        </mxCell>
        <mxCell id="VyBXLYsQOVFhSjAdN3pR-8" value="lowering" style="rounded=1;whiteSpace=wrap;html=1;arcSize=40;fontColor=#000000;fillColor=#ffffc0;strokeColor=#ff0000;" vertex="1" parent="5Ac1Sz5vzVrmEKb5OD5o-1">
          <mxGeometry x="5" y="180" width="120" height="40" as="geometry" />
        </mxCell>
        <mxCell id="VyBXLYsQOVFhSjAdN3pR-6" value="locking" style="rounded=1;whiteSpace=wrap;html=1;arcSize=40;fontColor=#000000;fillColor=#ffffc0;strokeColor=#ff0000;" vertex="1" parent="5Ac1Sz5vzVrmEKb5OD5o-1">
          <mxGeometry x="190" y="325" width="120" height="40" as="geometry" />
        </mxCell>
        <mxCell id="VyBXLYsQOVFhSjAdN3pR-12" value="Latch Lock System" style="rounded=1;whiteSpace=wrap;html=1;arcSize=40;fontColor=#000000;fillColor=#ffffc0;strokeColor=#ff0000;" vertex="1" parent="5Ac1Sz5vzVrmEKb5OD5o-1">
          <mxGeometry x="625" y="110" width="120" height="40" as="geometry" />
        </mxCell>
        <mxCell id="VyBXLYsQOVFhSjAdN3pR-10" value="End of Ladder" style="rounded=1;whiteSpace=wrap;html=1;arcSize=40;fontColor=#000000;fillColor=#ffffc0;strokeColor=#ff0000;" vertex="1" parent="5Ac1Sz5vzVrmEKb5OD5o-1">
          <mxGeometry x="540" y="480" width="120" height="40" as="geometry" />
        </mxCell>
      </root>
    </mxGraphModel>
  </diagram>
</mxfile>
